<svg viewBox="100 60 200 300" xmlns="http://www.w3.org/2000/svg">
  <path d="M166.6 65.5C167.3 66,168.8 68.3,169 69.4C169.2 70,169.4 70.4,169.6 70.4C169.8 70.4,170.1 70.9,170.4 71.5C170.6 72.1,171.2 73.3,171.7 74.2C173.9 77.8,175.2 80.3,176.4 82.7C177.1 84.1,177.8 85.3,178 85.4C178.2 85.5,178.4 86,178.4 86.4C178.4 86.8,178.7 87.3,179 87.6C179.7 88.2,180.1 90.1,179.8 91.2C179.7 91.7,178.1 92.7,175.9 93.8C173.9 94.8,171.9 95.9,171.6 96.2C171.2 96.5,170.7 96.8,170.5 96.8C170.3 96.8,170 96.9,169.9 97.1C169.9 97.3,169.1 97.9,168.2 98.6C161.7 103.4,157.3 108.9,153.2 117.2C150.4 122.9,149.3 126,148 131C147.8 131.9,147.5 133.4,147.2 134.4C147 135.4,146.6 137.9,146.4 140C146.2 142.1,145.8 145,145.6 146.4C144.9 150.3,145.5 160.1,146.9 165.6C147.1 166.6,147.4 168.1,147.6 169C147.9 170.4,148.7 172.6,149.9 175.7C150.2 176.3,150.4 177,150.4 177.2C150.4 177.4,151.1 178.9,152 180.6C154.1 184.6,154.5 185.3,155.1 185.9C155.4 186.2,155.6 186.6,155.6 186.8C155.6 186.9,155.9 187.4,156.3 187.9C156.7 188.4,157.3 189.1,157.6 189.6C159.4 192.2,163.5 196.5,166.7 199.1C167.7 199.9,168.7 200.8,168.8 200.9C169.1 201.3,170.4 202.1,171.6 202.7C171.9 202.8,173.1 203.5,174.1 204.3C175.1 205,176.2 205.6,176.5 205.6C176.9 205.6,177.3 205.9,177.6 206.2C177.9 206.5,178.3 206.8,178.7 206.8C179 206.8,179.9 207.2,180.7 207.6C181.5 208,182.5 208.4,182.8 208.4C183.2 208.4,183.8 208.7,184.2 209C184.7 209.3,185.5 209.6,186.2 209.6C186.9 209.6,187.8 209.8,188.2 210.1C188.6 210.4,190.2 210.8,191.7 210.9C193.2 211.1,194.8 211.4,195.3 211.7C196.5 212.3,212.9 212.4,213.7 211.7C214 211.4,215.5 211.1,217 211C218.5 210.8,220.2 210.4,220.6 210.1C221 209.8,221.9 209.6,222.6 209.6C223.3 209.6,224.2 209.3,224.6 209C225.1 208.7,225.7 208.4,226 208.4C226.3 208.4,227.3 208.1,228.2 207.6C229.1 207.2,230.1 206.8,230.4 206.6C230.7 206.5,231.3 206.2,231.6 206C231.9 205.8,232.5 205.5,232.8 205.4C233.1 205.3,234.1 204.7,235 204.2C235.9 203.6,236.9 203.1,237.3 203C237.7 202.8,238 202.6,238 202.4C238 202.3,238.9 201.5,240.1 200.8C242.6 199.2,250.1 191.7,251.8 189.2C252.5 188.2,253.2 187.2,253.5 186.9C253.7 186.6,254.3 185.6,254.8 184.6C255.3 183.6,255.8 182.8,256 182.8C256.2 182.8,256.4 182.5,256.4 182C256.4 181.6,256.7 181,257 180.7C257.3 180.3,257.6 179.8,257.6 179.5C257.6 179.2,258 178.5,258.4 177.8C258.8 177.1,259.2 176.2,259.2 175.7C259.2 175.3,259.5 174.7,259.8 174.4C260.1 174.1,260.4 173.3,260.4 172.6C260.4 171.9,260.6 171,261 170.6C261.3 170.2,261.6 168.8,261.8 167.6C262 166.5,262.3 164.9,262.7 164.1C263.5 162.2,263.5 139.8,262.7 137.9C262.3 137.1,262 135.4,261.8 134C261.6 132.6,261.3 131,261 130.5C260.7 129.9,260.4 128.9,260.4 128.2C260.4 127.5,260.1 126.7,259.8 126.2C259.5 125.8,259.2 125.1,259.2 124.7C259.2 124.3,258.8 123.3,258.4 122.5C258 121.7,257.6 120.7,257.6 120.4C257.6 120.1,257.3 119.5,257 119C256.7 118.6,256.4 117.9,256.4 117.5C256.4 117.1,256.2 116.8,256 116.8C255.8 116.8,255.5 116.2,255.2 115.4C254.9 114.6,254.6 114,254.5 114C254.3 114,254 113.5,253.7 112.9C253.2 111.6,252.4 110.4,251.8 109.8C251.5 109.6,250.8 108.6,250.2 107.7C249.6 106.8,248.9 106,248.7 106C248.6 106,248.4 105.8,248.4 105.7C248.4 105.2,244 100.8,243.6 100.8C243.4 100.8,243.1 100.6,242.9 100.3C242.7 100,241.9 99.2,241 98.6C240.1 97.9,239.3 97.3,239.2 97.2C239.1 97,238.7 96.8,238.4 96.7C238.1 96.5,237.1 95.9,236.2 95.4C235.3 94.9,233.5 93.9,232.2 93.3C228.2 91.3,228.2 90.1,232.4 83.4C232.8 82.7,233.7 81.1,234.4 79.8C235.1 78.5,235.8 77.1,236 76.8C236.2 76.5,236.4 75.9,236.6 75.6C236.7 75.3,237.2 74.3,237.8 73.4C238.3 72.5,239.2 70.9,239.8 69.8C242.1 65.5,242.1 65.4,244 65.3C245 65.2,245.9 65.4,246.3 65.7C246.7 66,247.5 66.4,248.1 66.6C248.7 66.7,249.2 67,249.2 67.2C249.2 67.4,249.7 67.7,250.4 67.8C251 67.9,251.8 68.3,252 68.6C252.3 68.9,252.7 69.2,253 69.2C253.3 69.2,253.8 69.4,254.1 69.7C254.8 70.3,255.9 71.1,257.2 71.7C257.8 72,258.3 72.4,258.5 72.7C258.7 73,259.1 73.2,259.4 73.2C259.7 73.2,260 73.5,260.1 73.8C260.3 74.1,260.6 74.4,260.9 74.4C261.2 74.4,262.1 75,262.9 75.8C263.8 76.6,264.5 77.2,264.6 77.2C264.7 77.2,265.4 77.8,266.1 78.5C266.9 79.2,268.3 80.5,269.2 81.4C270.8 82.9,272.8 85,276.2 88.8C277.2 90,281.1 95.5,283.1 98.6C284.3 100.5,289.6 111.6,289.6 112.3C289.6 112.7,289.9 113.3,290.2 113.8C290.5 114.2,290.8 114.9,290.8 115.4C290.8 115.9,291.1 116.8,291.4 117.5C292.2 119.2,293.6 123.7,293.6 124.9C293.6 125.4,293.9 126.5,294.2 127.3C294.5 128.1,294.8 129.7,294.8 130.7C294.8 131.8,295.1 133.5,295.5 134.5C296.5 137.1,296.5 165.7,295.5 168.4C295.1 169.3,294.8 170.8,294.8 171.7C294.8 172.5,294.5 173.9,294.2 174.7C293.9 175.5,293.6 176.5,293.6 176.9C293.6 177.9,292.2 182.6,291.4 184.1C291.1 184.8,290.8 185.5,290.8 185.9C290.8 186.2,290.6 187,290.2 187.5C289.9 188.1,289.3 189.6,288.8 190.8C288.3 192,287.6 193.3,287.3 193.6C287 194,286.8 194.5,286.8 194.8C286.8 195.1,286.2 196.3,285.4 197.6C284.6 198.9,284 200.1,284 200.1C284 200.4,280 206.3,278.2 208.6C275.7 211.9,272.1 216,269.8 218C264.8 222.6,262.4 224.6,260.8 225.7C259.8 226.4,258.9 227.1,258.8 227.2C258.4 227.7,250.9 232.1,248.6 233.2C247.7 233.6,245.9 234.4,244.6 235C243.3 235.6,241.8 236.2,241.4 236.4C219.2 246.3,184.9 243.7,162.9 230.6C155.8 226.3,153.6 224.7,147.6 219.5C146.1 218.1,145.4 217.7,145.1 218.1C145 218.4,144.8 248.6,144.8 285.2C144.8 342.1,144.7 352,144.2 352.6C143.7 353.4,143 353.4,128.8 353.5L114 353.6L113 352.6L112 351.6L112 249.3C112 183.4,112.2 146.2,112.5 144.8C112.7 143.6,113 140.4,113.2 137.8C113.3 135.2,113.7 132.6,113.9 132.2C114.1 131.8,114.4 130.2,114.6 128.8C114.8 127.4,115.1 125.7,115.4 125.1C115.8 124.5,116 123.4,116 122.7C116 122,116.3 121,116.6 120.6C116.9 120.1,117.2 119.4,117.2 118.8C117.2 118.3,117.6 117.1,118 116.2C118.4 115.3,118.8 114.2,118.8 113.7C118.8 113.3,119.1 112.7,119.4 112.4C119.7 112.1,120 111.5,120 111C120 110.5,120.3 109.8,120.6 109.5C120.9 109.1,121.2 108.5,121.2 108.1C121.2 107.7,121.8 106.5,122.4 105.4C123.1 104.3,123.7 103.1,123.8 102.8C124 102.5,124.2 101.9,124.4 101.6C124.6 101.3,125.1 100.5,125.4 99.8C125.7 99.1,126.4 98.1,126.8 97.4C127.2 96.7,127.8 95.8,128.1 95.3C128.3 94.8,128.7 94.4,128.9 94.4C129 94.4,129.2 94.2,129.2 94C129.2 93.5,132.3 89.5,132.8 89.3C133 89.2,133.2 88.9,133.2 88.6C133.2 87.9,141.4 79.6,144.4 77.2C145.6 76.2,146.7 75.3,146.8 75.2C146.9 75.1,147.8 74.5,148.8 73.8C149.8 73.1,150.7 72.5,150.7 72.3C150.8 72.1,151.1 72,151.4 72C151.6 72,152.2 71.6,152.6 71.2C153 70.8,153.7 70.4,154.1 70.4C154.5 70.4,154.8 70.2,154.8 70.1C154.8 69.7,161 66.4,161.8 66.4C162.1 66.4,162.5 66.1,162.8 65.8C163.3 65.2,165.9 65,166.6 65.5" fill="Black"/>
</svg>
