<svg viewBox="100 60 200 300" xmlns="http://www.w3.org/2000/svg">
  <path d="M194.8 77.798C193.37 78.082,191.12 78.5,189.8 78.727C183.112 79.878,177.545 81.666,170.064 85.066C168.45 85.8,167.062 86.4,166.98 86.4C166.898 86.4,165.159 87.414,163.116 88.653C161.072 89.893,159.036 91.108,158.591 91.353C147.629 97.404,129.571 119.606,127.08 130.097C126.815 131.215,125.71 134.324,125.196 135.4C124.379 137.112,122.467 145.923,121.897 150.6C121.217 156.19,121.21 282.362,121.889 288.2C122.145 290.4,122.734 293.82,123.198 295.8C123.661 297.78,124.181 300.03,124.352 300.8C128.008 317.196,143.326 337.881,159.158 347.8C159.509 348.02,160.266 348.509,160.84 348.886C162.459 349.949,166.846 352.373,168.4 353.062C169.17 353.404,170.7 354.09,171.8 354.588C172.9 355.086,174.97 355.898,176.4 356.392C177.83 356.887,179.567 357.541,180.26 357.846C180.954 358.15,181.867 358.4,182.289 358.4C182.712 358.4,183.855 358.647,184.829 358.948C196.112 362.438,216.647 362.519,229 359.121C229.88 358.879,231.23 358.539,232 358.365C236.223 357.412,248.857 351.965,252.4 349.57C252.95 349.198,254.747 348.018,256.394 346.947C262.457 343.005,270.735 335.447,274.956 330C276.924 327.46,281.333 320.903,282.352 319C282.823 318.12,283.384 317.13,283.598 316.8C283.812 316.47,284.626 314.76,285.407 313C286.188 311.24,287.001 309.487,287.214 309.105C287.426 308.723,287.6 308.195,287.6 307.932C287.6 307.668,287.941 306.721,288.358 305.826C288.776 304.932,289.215 303.75,289.335 303.2C289.647 301.766,290.405 298.916,291.085 296.616C291.694 294.553,292.155 291.144,292.787 284C293.259 278.675,293.284 159.942,292.814 154.8C292.238 148.484,291.608 143.984,291.03 142.042C290.728 141.029,290.167 139.03,289.784 137.6C288.687 133.507,285.329 125.05,283.589 122C275.745 108.246,267.784 99.529,255.544 91.291C251.996 88.904,241.8 83.6,240.757 83.6C240.367 83.6,239.949 83.441,239.829 83.247C239.709 83.052,238.303 82.491,236.705 81.999C235.107 81.507,232.81 80.783,231.6 80.39C229.453 79.693,226.271 78.993,220.6 77.973C216.612 77.255,198.169 77.13,194.8 77.798M212.955 103.638C219.934 104.476,225.617 106.041,230.523 108.477C231.635 109.028,235.989 111.351,236.755 111.8C240.331 113.898,247.09 119.896,250.053 123.6C254.926 129.691,259.69 138.703,260.82 143.966C261.037 144.975,261.376 146.16,261.575 146.6C263.388 150.616,263.4 151.108,263.4 219.6L263.4 284.2L262.521 288C261.053 294.343,259.93 298.118,258.861 300.305C258.674 300.687,257.835 302.44,256.997 304.2C249.652 319.623,235.44 330.758,218.4 334.442C214.638 335.255,200.775 335.356,196.805 334.599C181.271 331.639,167.366 321.834,159.65 308.4C158.702 306.75,157.766 305.13,157.569 304.8C156.197 302.496,152.8 293.206,152.8 291.756C152.8 291.201,152.605 290.384,152.368 289.939C150.731 286.881,149.871 166.475,151.402 154.6C154.207 132.829,167.213 115.181,186.2 107.382C186.86 107.11,188.057 106.61,188.86 106.27C189.663 105.93,191.013 105.536,191.86 105.395C192.707 105.255,193.897 104.95,194.504 104.719C197.603 103.541,207.376 102.968,212.955 103.638" fill="Black"/>
</svg>
